<svg width="23" height="24" viewBox="0 0 23 24" fill="none" xmlns="http://www.w3.org/2000/svg">
<path fill-rule="evenodd" clip-rule="evenodd" d="M1.04651 21.9479C0.270244 21.7154 -0.170479 20.8975 0.0621346 20.1213C0.6776 18.0673 1.84941 16.6027 3.80166 15.7318C5.62084 14.9204 8.01866 14.6731 11.0052 14.6731C13.9918 14.6731 16.3897 14.9204 18.2089 15.7318C20.1611 16.6027 21.3329 18.0673 21.9483 20.1213C22.181 20.8975 21.7402 21.7154 20.964 21.9479C7.62922 25.9426 4.79293 23.0704 1.04651 21.9479Z" fill="white"/>
<path fill-rule="evenodd" clip-rule="evenodd" d="M1.04651 21.9479C0.270244 21.7154 -0.170479 20.8975 0.0621346 20.1213C0.6776 18.0673 1.84941 16.6027 3.80166 15.7318C5.62084 14.9204 8.01866 14.6731 11.0052 14.6731C13.9918 14.6731 16.3897 14.9204 18.2089 15.7318C20.1611 16.6027 21.3329 18.0673 21.9483 20.1213C22.181 20.8975 21.7402 21.7154 20.964 21.9479C7.62922 25.9426 4.79293 23.0704 1.04651 21.9479Z" fill="url(#paint0_linear_64_961)"/>
<path fill-rule="evenodd" clip-rule="evenodd" d="M4.40234 6.60291C4.40234 2.95623 7.35857 0 11.0053 0C14.652 0 17.6082 2.95623 17.6082 6.60291C17.6082 10.2496 14.652 13.2058 11.0053 13.2058C7.35857 13.2058 4.40234 10.2496 4.40234 6.60291Z" fill="white"/>
<path fill-rule="evenodd" clip-rule="evenodd" d="M4.40234 6.60291C4.40234 2.95623 7.35857 0 11.0053 0C14.652 0 17.6082 2.95623 17.6082 6.60291C17.6082 10.2496 14.652 13.2058 11.0053 13.2058C7.35857 13.2058 4.40234 10.2496 4.40234 6.60291Z" fill="url(#paint1_linear_64_961)"/>
<defs>
<linearGradient id="paint0_linear_64_961" x1="0.492038" y1="19.3366" x2="21.6168" y2="19.3366" gradientUnits="userSpaceOnUse">
<stop stop-color="#F6DBB6"/>
<stop offset="1" stop-color="#D8A069"/>
</linearGradient>
<linearGradient id="paint1_linear_64_961" x1="4.69756" y1="6.60291" x2="17.372" y2="6.60291" gradientUnits="userSpaceOnUse">
<stop stop-color="#F6DBB6"/>
<stop offset="1" stop-color="#D8A069"/>
</linearGradient>
</defs>
</svg>
